<svg xmlns="http://www.w3.org/2000/svg" viewBox="0 0 512 512" fill="none">
  <defs>
    <linearGradient id="glow" x1="0" y1="0" x2="1" y2="1">
      <stop offset="0%" stop-color="#34d399"/>
      <stop offset="100%" stop-color="#059669"/>
    </linearGradient>
  </defs>
  <!-- Background circle -->
  <circle cx="256" cy="256" r="240" fill="#0a0a0a" stroke="url(#glow)" stroke-width="3"/>
  <!-- Inner glow ring -->
  <circle cx="256" cy="256" r="200" fill="none" stroke="#34d399" stroke-width="1" opacity="0.15"/>
  <!-- Central speech bubble / connection shape -->
  <!-- Two overlapping chat bubbles representing "talk" between "agents" -->
  <!-- Left bubble -->
  <path d="M160 200 C160 170, 190 150, 230 150 L280 150 C310 150, 330 170, 330 200 L330 240 C330 270, 310 285, 280 285 L240 285 L210 310 L215 285 L190 285 C170 285, 160 270, 160 240 Z" fill="#34d399" opacity="0.9"/>
  <!-- Right bubble (offset, overlapping) -->
  <path d="M195 210 C195 185, 220 168, 255 168 L305 168 C335 168, 355 185, 355 210 L355 250 C355 275, 335 290, 305 290 L300 290 L305 315 L275 290 L255 290 C225 290, 195 275, 195 250 Z" fill="#0a0a0a" stroke="#34d399" stroke-width="2.5"/>
  <!-- Connection dots inside bubbles -->
  <circle cx="255" cy="230" r="8" fill="#34d399"/>
  <circle cx="285" cy="230" r="8" fill="#34d399"/>
  <circle cx="315" cy="230" r="8" fill="#34d399"/>
</svg>
