<svg width="32" height="32" viewBox="0 0 32 32" fill="none" xmlns="http://www.w3.org/2000/svg">
<rect width="32" height="32" rx="16" fill="black"/>
<path d="M16.01 1.88257C7.97727 1.88257 1.4502 8.42761 1.4502 16.4814C1.4502 24.5352 7.97727 31.0803 16.01 31.0803C24.0427 31.0803 30.5698 24.5352 30.5698 16.4814C30.5698 8.42761 24.0427 1.88257 16.01 1.88257ZM16.01 2.51825C23.7077 2.51825 29.9365 8.76029 29.9365 16.4814C29.9365 24.1994 23.7077 30.4446 16.01 30.4446C8.30917 30.4446 2.08354 24.1994 2.08354 16.4814C2.08354 8.7595 8.30839 2.51825 16.01 2.51825Z" fill="white"/>
<path d="M29.2815 12.0991L29.1269 11.6188C28.9465 11.1643 28.7091 10.5575 28.5076 10.1132C25.829 5.39161 14.5601 3.45957 9.52303 3.78834C16.6663 3.90392 27.6361 7.1206 29.2815 12.0983M29.1699 20.8487C29.3393 20.2638 29.5439 19.4766 29.6736 18.8846L29.7423 18.477C30.1812 12.3435 15.3879 8.24593 5.58008 8.58564C18.268 9.40875 31.0488 14.8277 29.1699 20.8487Z" fill="white"/>
<path d="M23.6739 28.1234C24.1828 27.748 24.6799 27.3568 25.1647 26.9505C25.4349 26.6904 25.798 26.3476 26.0542 26.0735C30.9545 20.3008 15.6279 15.4886 3.76074 15.644C21.5575 17.2864 29.4309 23.651 24.0807 27.8274C23.9581 27.9212 23.7965 28.0328 23.6739 28.1234Z" fill="white"/>
<path d="M15.606 30.0481C17.6653 31.0766 21.4888 30.0192 21.6942 27.9794C21.9823 25.1891 13.3123 22.4269 5.12891 22.7049C16.6969 23.5421 22.144 27.3007 19.5731 29.3077" fill="white"/>
</svg>
